Coordinates
version=1
nRows=16
nColumns=40
inDegrees=yes

Units are S.I. units (second, meters, Newtons, ...)
If the header above contains a line with 'inDegrees', this indicates whether rotational values are in degrees (yes) or radians (no).

endheader
time	pelvis_tilt	pelvis_list	pelvis_rotation	pelvis_tx	pelvis_ty	pelvis_tz	hip_flexion_r	hip_adduction_r	hip_rotation_r	knee_angle_r	knee_angle_r_beta	ankle_angle_r	subtalar_angle_r	mtp_angle_r	hip_flexion_l	hip_adduction_l	hip_rotation_l	knee_angle_l	knee_angle_l_beta	ankle_angle_l	subtalar_angle_l	mtp_angle_l	lumbar_extension	lumbar_bending	lumbar_rotation	arm_flex_r	arm_add_r	arm_rot_r	elbow_flex_r	pro_sup_r	wrist_flex_r	wrist_dev_r	arm_flex_l	arm_add_l	arm_rot_l	elbow_flex_l	pro_sup_l	wrist_flex_l	wrist_dev_l
      1.50000000	      4.34014346	     -4.83016358	     -1.20295705	     -0.28776837	      1.04820573	     -1.05261088	     32.73872917	     -0.80863670	     -1.72767651	      6.33463082	      0.11056016	      2.47974691	      0.00000000	      0.00000000	      5.31939938	     -2.75765941	     -6.78888747	     24.43360473	      0.42644685	      0.24229140	      0.00000000	      0.00000000	    -10.51593667	      0.75140933	     -1.13095036	     81.74234139	    -23.24684355	     44.17462840	     32.72980427	     85.28092296	      0.00000000	      0.00000000	     53.41171149	    -56.21052354	      9.58596082	     50.76692580	     86.50335960	      0.00000000	      0.00000000
      1.50500000	      4.33471808	     -4.87954159	     -1.21622473	     -0.28748558	      1.04802257	     -1.05255560	     32.94065971	     -0.72803089	     -1.85043324	      6.11644614	      0.10675212	      2.61913588	      0.00000000	      0.00000000	      5.32983936	     -2.83681510	     -6.92431774	     24.49529935	      0.42752362	      0.32270376	      0.00000000	      0.00000000	    -10.48718734	      0.78021336	     -1.12994644	     82.03577555	    -23.29217976	     44.30067043	     32.60748629	     85.35948289	      0.00000000	      0.00000000	     53.67052063	    -56.38817667	      9.91236893	     50.79586346	     86.54368892	      0.00000000	      0.00000000
      1.51000000	      4.31185331	     -4.85294438	     -1.18274054	     -0.28809653	      1.04791556	     -1.05282983	     33.20507920	     -0.75329392	     -1.85451371	      5.93926745	      0.10365977	      2.66013291	      0.00000000	      0.00000000	      5.46845489	     -2.79279313	     -6.83701068	     24.63943554	      0.43003928	      0.27241131	      0.00000000	      0.00000000	    -10.54253589	      0.75655315	     -1.12422778	     82.44096885	    -23.36282896	     44.39761438	     32.36158720	     85.50750379	      0.00000000	      0.00000000	     54.15585175	    -56.40228025	     10.19268985	     50.77454420	     86.49563902	      0.00000000	      0.00000000
      1.51500000	      4.29549213	     -4.86771593	     -1.17938093	     -0.28816360	      1.04775205	     -1.05293879	     33.47959099	     -0.73494168	     -2.09421484	      5.80219705	      0.10126744	      2.52284854	      0.00000000	      0.00000000	      5.54240521	     -2.81916340	     -6.86828257	     24.75996716	      0.43214295	      0.29766353	      0.00000000	      0.00000000	    -10.54926629	      0.78348372	     -1.18795191	     82.81038124	    -23.32946975	     44.56933395	     32.18432901	     85.55745817	      0.00000000	      0.00000000	     54.35831140	    -56.59506155	     10.39971062	     50.76775775	     86.45074532	      0.00000000	      0.00000000
      1.52000000	      4.25816707	     -4.86028789	     -1.18867008	     -0.28839819	      1.04753730	     -1.05301477	     33.76605854	     -0.71544950	     -2.04997614	      5.69947786	      0.09947465	      2.64902187	      0.00000000	      0.00000000	      5.63203463	     -2.81078300	     -6.85304988	     24.81994724	      0.43318980	      0.31782506	      0.00000000	      0.00000000	    -10.51870822	      0.72028219	     -0.96633552	     83.11887496	    -23.78501667	     45.09084308	     32.25731237	     85.13134240	      0.00000000	      0.00000000	     55.29909368	    -56.31878610	     11.02225210	     50.45335796	     86.65527014	      0.00000000	      0.00000000
      1.52500000	      4.24437006	     -4.86612416	     -1.17190672	     -0.28858071	      1.04740466	     -1.05313743	     33.97527812	     -0.70582762	     -2.20304102	      5.47794883	      0.09560824	      2.67217651	      0.00000000	      0.00000000	      5.72620498	     -2.82224801	     -6.87630324	     24.96493515	      0.43572032	      0.39430936	      0.00000000	      0.00000000	    -10.53434086	      0.74136390	     -1.04223425	     83.47582298	    -23.71783318	     45.15962551	     31.97605007	     85.41920697	      0.00000000	      0.00000000	     55.52355071	    -56.48399836	     11.20669137	     50.42594032	     86.55468566	      0.00000000	      0.00000000
      1.53000000	      4.23336208	     -4.89063481	     -1.13270741	     -0.28872880	      1.04723360	     -1.05329406	     34.21010304	     -0.68957256	     -2.39129971	      5.34969913	      0.09336986	      2.74949528	      0.00000000	      0.00000000	      5.79734672	     -2.83402363	     -6.74928199	     25.05350097	      0.43726608	      0.48251089	      0.00000000	      0.00000000	    -10.54133570	      0.74628918	     -0.93598706	     83.79882048	    -24.02750657	     45.53534759	     31.97478064	     85.24259588	      0.00000000	      0.00000000	     56.22998700	    -56.34936804	     11.75190058	     50.19692705	     86.60425687	      0.00000000	      0.00000000
      1.53500000	      4.22222729	     -4.91316023	     -1.12464452	     -0.28894180	      1.04705942	     -1.05336664	     34.45399261	     -0.65044517	     -2.44797349	      5.29900602	      0.09248510	      2.95572159	      0.00000000	      0.00000000	      5.89030599	     -2.86478852	     -6.78513419	     25.20111065	      0.43984236	      0.51150410	      0.00000000	      0.00000000	    -10.57412714	      0.78197005	     -1.03320048	     84.20831397	    -23.90625705	     45.64045589	     31.66543224	     85.39476074	      0.00000000	      0.00000000	     56.35936920	    -56.55577695	     11.73798623	     50.24347612	     86.57066030	      0.00000000	      0.00000000
      1.54000000	      4.20767552	     -4.93412463	     -1.11068553	     -0.28904739	      1.04691546	     -1.05347355	     34.70173667	     -0.63118196	     -2.62309732	      5.19829477	      0.09072736	      2.91877130	      0.00000000	      0.00000000	      5.95935387	     -2.88503767	     -6.75650432	     25.29937546	      0.44155740	      0.56387751	      0.00000000	      0.00000000	    -10.57502517	      0.80443271	     -1.03891462	     84.54228451	    -23.96208032	     45.87354223	     31.48200077	     85.33284149	      0.00000000	      0.00000000	     56.71041008	    -56.63038113	     12.00911987	     50.18103052	     86.59761988	      0.00000000	      0.00000000
      1.54500000	      4.22245660	     -4.94518016	     -1.09235358	     -0.28913137	      1.04677396	     -1.05364570	     34.88276232	     -0.62706196	     -2.74337899	      5.07290019	      0.08853881	      2.99278267	      0.00000000	      0.00000000	      5.99353607	     -2.87143307	     -6.66100583	     25.39071051	      0.44315150	      0.66873091	      0.00000000	      0.00000000	    -10.61602702	      0.80656131	     -0.97142607	     84.86512760	    -24.20045807	     46.18979340	     31.49074873	     85.29667680	      0.00000000	      0.00000000	     57.21771669	    -56.53432243	     12.21672630	     50.07376607	     86.59195428	      0.00000000	      0.00000000
      1.55000000	      4.20819405	     -4.97002119	     -1.09001084	     -0.28929033	      1.04661111	     -1.05374492	     35.10823007	     -0.59403481	     -2.83843851	      4.99344273	      0.08715202	      2.97182075	      0.00000000	      0.00000000	      6.06839502	     -2.89141137	     -6.63235397	     25.49151368	      0.44491085	      0.71396322	      0.00000000	      0.00000000	    -10.62793160	      0.84431988	     -1.01337990	     85.26596242	    -24.18127032	     46.50036083	     31.22914800	     85.35758176	      0.00000000	      0.00000000	     57.45158106	    -56.72999577	     12.48806768	     50.11171263	     86.55106309	      0.00000000	      0.00000000
      1.55500000	      4.20937768	     -5.01505448	     -1.06494045	     -0.28946346	      1.04647500	     -1.05386869	     35.32017013	     -0.54366955	     -2.96609137	      4.96226126	      0.08660780	      3.22065651	      0.00000000	      0.00000000	      6.13101499	     -2.93113874	     -6.59248364	     25.60067923	      0.44681614	      0.78475451	      0.00000000	      0.00000000	    -10.64561391	      0.87867168	     -0.89383150	     85.54700206	    -24.45647624	     46.68265892	     31.24396461	     85.38853592	      0.00000000	      0.00000000	     58.12817735	    -56.59310718	     13.04428858	     49.86689573	     86.53435666	      0.00000000	      0.00000000
      1.56000000	      4.21951525	     -5.04873469	     -1.06039454	     -0.28961310	      1.04633396	     -1.05397090	     35.52636102	     -0.50365577	     -3.17391946	      4.91314361	      0.08575053	      3.19755980	      0.00000000	      0.00000000	      6.17022458	     -2.95021087	     -6.54238531	     25.69449346	      0.44845351	      0.78080892	      0.00000000	      0.00000000	    -10.68263246	      0.92138270	     -0.91579334	     85.88933724	    -24.38513214	     46.75575159	     30.91906845	     85.38437502	      0.00000000	      0.00000000	     58.41723097	    -56.71417608	     13.24383470	     49.84672977	     86.53513134	      0.00000000	      0.00000000
      1.56500000	      4.23127859	     -5.04925715	     -1.07956615	     -0.28984677	      1.04621559	     -1.05406009	     35.74140453	     -0.48725262	     -3.28498931	      4.89136176	      0.08537037	      3.14554990	      0.00000000	      0.00000000	      6.20930098	     -2.94384067	     -6.55062380	     25.78650763	      0.45005946	      0.84899411	      0.00000000	      0.00000000	    -10.73279032	      0.91884092	     -0.86808639	     86.23301473	    -24.48404270	     46.97365423	     30.78684593	     85.35924561	      0.00000000	      0.00000000	     58.82795051	    -56.69801774	     13.42768950	     49.74249641	     86.58008963	      0.00000000	      0.00000000
      1.57000000	      4.22725414	     -5.08025030	     -1.08911140	     -0.29000625	      1.04607780	     -1.05412343	     35.94288289	     -0.42760653	     -3.36862226	      4.86010725	      0.08482487	      3.31984515	      0.00000000	      0.00000000	      6.26649495	     -2.97534701	     -6.53843994	     25.88503336	      0.45177906	      0.93015357	      0.00000000	      0.00000000	    -10.75065360	      0.95309994	     -0.82764408	     86.54542900	    -24.57749007	     47.15530008	     30.69217100	     85.30658636	      0.00000000	      0.00000000	     59.20536247	    -56.72906029	     13.69627681	     49.66771903	     86.56298440	      0.00000000	      0.00000000
      1.57500000	      4.25423806	     -5.04831318	     -1.07075070	     -0.29028149	      1.04601961	     -1.05430153	     36.15975019	     -0.46192193	     -3.52915664	      4.93450958	      0.08612344	      3.36672294	      0.00000000	      0.00000000	      6.27992547	     -2.92020752	     -6.48170888	     25.91400831	      0.45228477	      0.88112860	      0.00000000	      0.00000000	    -10.81315967	      0.91752108	     -0.78961512	     86.84080338	    -24.67592015	     47.23404681	     30.57138744	     85.34207225	      0.00000000	      0.00000000	     59.66557813	    -56.73151979	     14.08214709	     49.58279573	     86.54922662	      0.00000000	      0.00000000
